<?xml version="1.0" standalone="no"?>
<!DOCTYPE svg PUBLIC "-//W3C//DTD SVG 20010904//EN"
 "http://www.w3.org/TR/2001/REC-SVG-20010904/DTD/svg10.dtd">
<svg version="1.0" xmlns="http://www.w3.org/2000/svg"
 width="833.000000pt" height="833.000000pt" viewBox="0 0 833.000000 833.000000"
 preserveAspectRatio="xMidYMid meet">
<metadata>
Created by potrace 1.14, written by Peter Selinger 2001-2017
</metadata>
<g transform="translate(0.000000,833.000000) scale(0.100000,-0.100000)"
fill="#000000" stroke="none">
<path d="M6455 6773 c-3 -10 -27 -34 -53 -53 -64 -47 -70 -52 -95 -75 -28 -24
-76 -54 -99 -62 -10 -3 -18 -9 -18 -14 0 -5 -9 -9 -20 -9 -11 0 -20 -4 -20
-10 0 -5 -9 -10 -20 -10 -11 0 -20 -4 -20 -10 0 -5 -11 -10 -25 -10 -14 0 -25
-4 -25 -10 0 -5 -9 -10 -20 -10 -11 0 -20 -4 -20 -10 0 -5 -9 -10 -19 -10 -11
0 -23 -4 -26 -10 -3 -5 -15 -10 -26 -10 -10 0 -27 -4 -37 -10 -19 -11 -137
-48 -197 -62 -51 -11 -171 -27 -305 -39 -205 -18 -230 -21 -230 -30 0 -5 -22
-9 -50 -9 -27 0 -50 -4 -50 -10 0 -5 -13 -10 -30 -10 -16 0 -30 -4 -30 -10 0
-5 -14 -10 -30 -10 -17 0 -39 -4 -50 -10 -11 -5 -29 -14 -40 -20 -11 -5 -27
-10 -35 -10 -8 0 -15 -4 -15 -10 0 -5 -7 -10 -15 -10 -9 0 -21 -5 -28 -10 -7
-6 -40 -27 -74 -48 -35 -20 -72 -45 -83 -54 -11 -10 -24 -18 -29 -18 -13 0
-150 -137 -186 -185 -16 -22 -35 -46 -41 -53 -7 -6 -16 -21 -19 -32 -3 -11
-11 -20 -16 -20 -5 0 -9 -9 -9 -20 0 -11 -4 -20 -8 -20 -5 0 -14 -16 -22 -35
-8 -19 -17 -35 -22 -35 -4 0 -8 -11 -8 -25 0 -14 -4 -25 -10 -25 -5 0 -10 -11
-10 -25 0 -14 -4 -25 -9 -25 -5 0 -11 -15 -14 -32 -3 -18 -11 -55 -18 -83 -16
-65 -25 -2925 -9 -2925 5 0 10 14 10 30 0 17 5 30 10 30 6 0 10 16 10 35 0 19
5 35 10 35 6 0 10 14 10 30 0 17 5 30 10 30 6 0 10 14 10 30 0 17 5 30 10 30
6 0 10 14 10 30 0 17 5 30 10 30 6 0 10 7 10 15 0 16 6 31 34 80 9 17 30 57
48 90 17 33 34 62 39 63 5 2 9 10 9 19 0 8 6 20 13 28 28 30 47 56 47 65 0 11
27 42 136 153 90 91 133 128 167 146 15 8 27 18 27 23 0 4 7 8 15 8 8 0 15 5
15 10 0 6 9 10 20 10 11 0 20 3 20 8 0 8 49 32 67 32 7 0 13 5 13 10 0 6 9 10
20 10 11 0 20 5 20 10 0 6 7 10 15 10 8 0 23 4 33 10 37 20 176 61 276 82 28
6 197 14 376 19 335 8 430 14 430 30 0 5 14 9 30 9 17 0 30 5 30 10 0 6 14 10
30 10 17 0 30 5 30 10 0 6 7 10 15 10 8 0 24 5 35 10 126 63 129 65 217 148
30 28 60 52 66 52 6 0 8 3 4 6 -3 3 9 21 27 41 19 19 40 46 47 61 8 15 18 30
24 34 12 9 8 229 -5 273 -4 17 -11 75 -15 130 -6 96 -9 133 -34 360 -10 96
-44 441 -56 575 -4 36 -11 110 -16 165 -5 55 -12 139 -15 188 -3 48 -10 87
-15 87 -5 0 -9 49 -9 110 0 67 -4 110 -10 110 -6 0 -10 42 -10 105 0 59 -4
105 -9 105 -6 0 -12 48 -15 108 -14 278 -16 292 -36 292 -10 0 -21 -8 -25 -17z"/>
<path d="M6954 6232 c-17 -15 -44 -36 -59 -47 -15 -11 -37 -29 -49 -40 -11
-11 -33 -26 -48 -34 -16 -8 -28 -18 -28 -23 0 -4 -9 -8 -20 -8 -11 0 -20 -4
-20 -10 0 -5 -9 -10 -20 -10 -29 0 -33 -34 -20 -142 12 -100 46 -432 61 -588
5 -52 13 -138 19 -190 6 -52 13 -148 16 -214 4 -74 9 -113 15 -105 5 9 9 -32
9 -103 0 -72 4 -118 10 -118 6 0 10 -36 10 -89 0 -50 5 -93 10 -96 6 -3 10
-51 10 -109 0 -56 4 -106 10 -112 5 -5 10 -57 11 -117 2 -98 0 -108 -19 -126
-12 -10 -22 -22 -22 -26 0 -8 -138 -145 -178 -177 -11 -9 -31 -22 -44 -29 -13
-6 -25 -15 -28 -19 -17 -25 -245 -120 -287 -120 -13 0 -23 -4 -23 -10 0 -5
-20 -10 -45 -10 -25 0 -45 -4 -45 -10 0 -6 -65 -10 -175 -10 -100 0 -175 4
-175 9 0 5 -55 12 -122 15 -68 3 -145 8 -171 12 -31 4 -53 2 -60 -5 -6 -6 -48
-11 -99 -11 -52 0 -88 -4 -88 -10 0 -5 -20 -10 -45 -10 -25 0 -45 -4 -45 -10
0 -5 -18 -10 -40 -10 -22 0 -40 -4 -40 -10 0 -5 -13 -10 -30 -10 -16 0 -30 -4
-30 -10 0 -5 -9 -10 -20 -10 -11 0 -20 -4 -20 -10 0 -5 -9 -10 -20 -10 -11 0
-20 -4 -20 -10 0 -5 -7 -10 -16 -10 -18 0 -121 -65 -145 -92 -9 -10 -22 -18
-28 -18 -7 0 -30 -18 -51 -40 -21 -22 -41 -40 -45 -40 -6 0 -69 -64 -127 -129
-16 -17 -28 -36 -28 -41 0 -6 -4 -10 -10 -10 -5 0 -10 -5 -10 -11 0 -7 -8 -19
-17 -28 -30 -27 -153 -258 -153 -286 0 -8 -4 -15 -10 -15 -5 0 -10 -9 -10 -20
0 -11 -4 -20 -10 -20 -5 0 -10 -13 -10 -30 0 -16 -4 -30 -10 -30 -5 0 -10 -11
-10 -25 0 -14 -4 -25 -10 -25 -5 0 -10 -13 -10 -30 0 -16 -4 -30 -10 -30 -5 0
-10 -9 -10 -20 0 -11 -4 -28 -9 -38 -4 -9 -13 -31 -18 -48 -9 -28 -8 -31 8
-27 11 3 19 14 19 24 0 11 5 19 10 19 6 0 10 11 10 25 0 14 5 25 10 25 6 0 10
9 10 20 0 11 5 20 10 20 6 0 10 9 10 20 0 11 4 20 9 20 5 0 13 9 16 20 3 11
12 26 18 33 7 6 30 39 52 72 44 66 245 272 294 301 17 10 31 22 31 26 0 4 8 8
18 8 10 0 24 9 32 20 8 11 22 20 32 20 10 0 18 5 18 10 0 6 9 10 20 10 11 0
20 5 20 10 0 6 9 10 19 10 11 0 23 5 26 10 3 5 15 10 25 10 10 0 20 4 22 8 2
4 41 20 88 35 78 24 107 32 210 57 45 11 383 32 401 25 8 -3 61 -9 119 -15
131 -12 261 -33 365 -61 44 -11 100 -24 125 -28 25 -4 50 -10 57 -14 19 -12
454 -10 466 2 6 6 20 11 31 11 33 0 229 68 234 82 2 4 12 8 23 8 10 0 19 5 19
10 0 6 6 10 13 10 7 0 23 9 35 20 12 11 26 20 32 20 5 0 10 5 10 10 0 6 4 10
10 10 18 0 110 83 110 99 0 6 5 11 10 11 6 0 10 30 10 70 0 40 -4 70 -10 70
-6 0 -10 38 -10 95 0 57 -4 95 -10 95 -6 0 -10 34 -10 83 0 46 -4 87 -9 93 -5
5 -12 47 -15 94 -14 210 -18 250 -25 250 -5 0 -11 39 -15 88 -9 130 -15 190
-26 262 -12 85 -26 203 -61 505 -6 50 -15 124 -20 165 -5 41 -12 119 -15 173
-4 53 -10 97 -15 97 -5 0 -9 34 -9 75 0 43 -4 75 -10 75 -6 0 -10 40 -10 100
0 60 -4 100 -10 100 -6 0 -10 33 -10 79 0 44 -4 83 -10 86 -5 3 -10 44 -10 90
0 66 -3 84 -16 89 -20 8 -14 10 -50 -22z"/>
<path d="M3057 5744 c-4 -4 -29 -11 -55 -15 -89 -15 -137 -26 -182 -43 -25 -9
-52 -18 -61 -20 -17 -5 -95 -38 -152 -67 -22 -10 -44 -19 -51 -19 -6 0 -18 -9
-26 -20 -8 -12 -26 -20 -42 -20 -15 0 -28 -4 -28 -10 0 -5 -9 -10 -20 -10 -11
0 -20 -4 -20 -10 0 -5 -11 -10 -24 -10 -14 0 -28 -4 -31 -10 -3 -5 -17 -10
-31 -10 -13 0 -24 -4 -24 -9 0 -5 -10 -11 -22 -14 -13 -3 -41 -10 -63 -16 -22
-6 -58 -15 -80 -20 -22 -5 -71 -17 -110 -26 -174 -41 -384 -59 -680 -58 -126
1 -248 4 -271 8 -37 6 -41 4 -52 -20 -7 -14 -12 -48 -12 -75 0 -28 -4 -50 -10
-50 -6 0 -10 -30 -10 -70 0 -40 -4 -70 -10 -70 -6 0 -10 -26 -10 -59 0 -33 -4
-62 -9 -65 -4 -3 -11 -34 -15 -68 -6 -62 -16 -125 -35 -243 -6 -33 -14 -87
-20 -120 -5 -33 -17 -105 -26 -160 -10 -55 -21 -125 -26 -155 -25 -158 -31
-190 -39 -245 -5 -33 -14 -89 -20 -125 -6 -36 -14 -95 -16 -132 -3 -38 -10
-68 -15 -68 -5 0 -9 -27 -9 -60 0 -33 -4 -60 -10 -60 -6 0 -10 -30 -10 -70 0
-38 -4 -70 -9 -70 -5 0 -12 -26 -15 -57 -2 -32 -9 -85 -15 -118 -5 -33 -14
-91 -20 -130 -6 -38 -15 -92 -20 -120 -5 -27 -19 -117 -31 -200 -12 -82 -26
-166 -31 -185 -6 -19 -9 -51 -7 -70 3 -32 6 -35 44 -41 22 -4 126 -12 230 -19
159 -9 217 -9 359 4 94 9 197 20 230 26 130 23 171 32 201 41 17 5 42 9 57 9
15 0 27 5 27 10 0 6 16 10 35 10 19 0 35 5 35 10 0 6 14 10 30 10 17 0 30 5
30 10 0 6 14 10 30 10 17 0 30 5 30 10 0 6 9 10 20 10 28 0 100 23 100 32 0 5
7 8 15 8 8 0 23 4 33 9 9 6 44 22 77 37 33 16 62 32 63 36 2 4 12 8 23 8 10 0
19 3 19 8 0 8 49 32 67 32 7 0 13 5 13 10 0 6 9 10 20 10 11 0 20 5 20 10 0 6
11 10 25 10 14 0 25 5 25 10 0 6 14 10 30 10 17 0 30 5 30 10 0 6 15 10 34 10
19 0 38 5 41 10 3 6 19 10 35 10 16 0 32 5 35 10 3 6 22 10 41 10 20 0 44 5
55 10 26 15 404 17 421 3 7 -6 31 -13 53 -16 88 -13 115 -20 115 -28 0 -5 11
-9 25 -9 14 0 25 -4 25 -10 0 -5 14 -10 30 -10 17 0 30 -4 30 -10 0 -5 9 -10
20 -10 11 0 20 -4 20 -10 0 -5 9 -10 20 -10 11 0 20 -4 20 -10 0 -5 9 -10 20
-10 11 0 20 -4 20 -10 0 -5 9 -10 20 -10 11 0 20 -4 20 -9 0 -5 8 -12 18 -15
9 -3 33 -19 52 -36 19 -16 39 -30 43 -30 5 0 22 -13 37 -30 15 -16 33 -30 40
-30 15 0 230 -220 230 -236 0 -3 14 -19 30 -34 17 -15 30 -33 30 -40 0 -13 25
-40 37 -40 4 0 7 672 6 1492 -3 1470 -5 1548 -34 1548 -4 0 -11 9 -14 20 -4
11 -17 32 -31 45 -13 13 -24 27 -24 30 0 8 -149 155 -158 155 -4 0 -14 9 -22
20 -8 11 -21 20 -30 20 -9 0 -22 9 -30 20 -8 11 -22 20 -31 20 -10 0 -19 4
-21 8 -9 24 -211 104 -313 125 -61 12 -348 21 -358 11z"/>
<path d="M7310 5550 c0 -5 -9 -10 -20 -10 -11 0 -20 -4 -20 -10 0 -5 -11 -10
-24 -10 -42 0 -48 -19 -36 -116 6 -49 15 -118 20 -154 15 -92 30 -223 37 -307
3 -40 9 -73 14 -73 5 0 9 -38 9 -85 0 -50 4 -85 10 -85 6 0 10 -37 10 -90 0
-53 4 -90 10 -90 6 0 10 -30 10 -69 0 -39 5 -73 10 -76 6 -3 10 -44 10 -90 0
-46 4 -86 9 -89 4 -3 11 -41 15 -83 4 -43 11 -114 16 -158 21 -167 29 -233 39
-320 5 -49 17 -139 26 -200 8 -60 18 -145 22 -187 l6 -76 -56 -36 c-31 -20
-61 -36 -67 -36 -5 0 -10 -4 -10 -10 0 -5 -9 -10 -20 -10 -11 0 -20 -4 -20
-10 0 -5 -9 -10 -20 -10 -11 0 -20 -4 -20 -10 0 -5 -11 -10 -25 -10 -14 0 -25
-4 -25 -10 0 -5 -9 -10 -19 -10 -11 0 -23 -4 -26 -10 -3 -5 -15 -10 -26 -10
-10 0 -27 -4 -37 -9 -9 -5 -35 -14 -57 -19 -22 -6 -58 -15 -80 -21 -103 -28
-261 -42 -390 -36 -113 6 -172 13 -343 42 -18 3 -35 9 -38 14 -3 5 -18 9 -35
9 -16 0 -29 4 -29 9 0 8 -23 14 -112 27 -21 4 -38 10 -38 15 0 5 -20 9 -45 9
-25 0 -45 5 -45 10 0 6 -20 10 -45 10 -25 0 -45 4 -45 9 0 20 -311 41 -445 30
-181 -16 -215 -20 -215 -30 0 -5 -16 -9 -35 -9 -19 0 -35 -4 -35 -10 0 -5 -13
-10 -30 -10 -16 0 -30 -4 -30 -10 0 -5 -13 -10 -30 -10 -16 0 -30 -4 -30 -10
0 -5 -11 -10 -25 -10 -14 0 -25 -4 -25 -10 0 -5 -9 -10 -20 -10 -11 0 -20 -4
-20 -10 0 -5 -9 -10 -20 -10 -11 0 -20 -4 -20 -10 0 -5 -7 -10 -16 -10 -8 0
-22 -6 -29 -12 -31 -28 -43 -37 -73 -52 -17 -9 -42 -27 -56 -41 -14 -14 -30
-25 -36 -25 -5 0 -10 -4 -10 -10 0 -5 -5 -10 -11 -10 -11 0 -59 -48 -124 -125
-22 -26 -52 -60 -67 -76 -15 -17 -30 -39 -33 -50 -4 -10 -11 -19 -16 -19 -5 0
-9 -8 -9 -18 0 -10 -9 -24 -20 -32 -11 -8 -20 -22 -20 -32 0 -10 -4 -18 -10
-18 -5 0 -10 -9 -10 -20 0 -11 -4 -20 -10 -20 -5 0 -10 -9 -10 -20 0 -11 -4
-20 -10 -20 -5 0 -10 -5 -10 -10 0 -6 -9 -30 -20 -52 -11 -23 -18 -44 -15 -46
3 -3 5 0 5 6 0 7 5 12 10 12 15 0 60 46 60 60 0 14 254 270 268 270 4 0 17 9
29 19 50 47 279 171 315 171 10 0 18 5 18 10 0 6 14 10 30 10 17 0 30 5 30 10
0 6 18 10 40 10 22 0 40 5 40 10 0 6 22 10 48 10 26 0 53 5 58 10 20 20 524
-1 524 -21 0 -5 18 -9 40 -9 22 0 40 -4 40 -10 0 -5 18 -10 40 -10 22 0 40 -4
40 -10 0 -5 9 -10 20 -10 11 0 28 -4 38 -9 9 -5 37 -15 62 -22 37 -11 140 -54
210 -88 8 -4 36 -14 63 -22 26 -7 47 -17 47 -21 0 -4 14 -8 30 -8 17 0 30 -4
30 -10 0 -5 11 -10 24 -10 14 0 28 -4 31 -10 3 -5 17 -10 31 -10 13 0 24 -4
24 -10 0 -5 18 -10 40 -10 22 0 40 -4 40 -10 0 -5 14 -10 30 -10 17 0 30 -4
30 -10 0 -5 15 -10 34 -10 19 0 37 -4 40 -9 3 -5 23 -11 43 -14 21 -3 106 -19
188 -35 83 -17 188 -36 235 -42 101 -14 495 -8 585 10 33 6 66 12 73 12 10 1
12 13 8 47 -4 25 -9 71 -12 101 -3 30 -9 64 -14 75 -5 11 -12 43 -15 70 -12
111 -31 245 -54 380 -5 33 -14 92 -20 130 -6 39 -18 115 -27 170 -31 188 -53
350 -60 433 -3 34 -10 62 -15 62 -5 0 -9 29 -9 65 0 37 -4 65 -10 65 -6 0 -10
28 -10 65 0 36 -4 65 -9 65 -5 0 -12 33 -15 73 -10 138 -17 192 -26 212 -5 11
-12 43 -15 70 -13 115 -39 292 -60 410 -9 50 -20 119 -25 155 -5 36 -14 94
-20 130 -5 36 -13 98 -16 138 -4 40 -11 75 -15 78 -5 3 -9 24 -9 48 0 23 -6
54 -12 69 -13 27 -28 36 -28 17z"/>
<path d="M681 5153 c-5 -10 -11 -36 -14 -58 -3 -22 -12 -69 -21 -105 -44 -191
-58 -258 -63 -290 -2 -19 -8 -44 -13 -55 -9 -20 -16 -60 -26 -145 -3 -25 -10
-49 -15 -54 -5 -6 -9 -29 -9 -53 0 -24 -4 -43 -10 -43 -5 0 -10 -18 -10 -40 0
-22 -4 -40 -10 -40 -5 0 -10 -22 -10 -49 0 -27 -4 -51 -9 -53 -6 -1 -11 -27
-12 -55 -2 -29 -6 -53 -10 -53 -4 0 -9 -19 -12 -42 -3 -24 -10 -63 -16 -88 -5
-25 -14 -65 -20 -90 -70 -306 -78 -344 -88 -415 -3 -22 -9 -44 -14 -49 -5 -6
-9 -32 -9 -58 0 -26 -4 -48 -10 -48 -5 0 -10 -20 -10 -45 0 -25 -4 -45 -10
-45 -5 0 -10 -22 -10 -50 0 -27 -4 -50 -10 -50 -5 0 -10 -18 -10 -39 0 -22 -5
-43 -10 -46 -6 -3 -10 -25 -10 -49 0 -23 -4 -46 -9 -52 -5 -5 -11 -27 -14 -49
-3 -22 -10 -60 -16 -85 -21 -87 -42 -186 -57 -265 -15 -82 -28 -136 -45 -191
-5 -17 -9 -44 -9 -62 0 -17 -5 -34 -10 -37 -6 -3 -10 -26 -10 -50 0 -24 -4
-47 -10 -50 -5 -3 -10 -28 -10 -56 0 -27 -4 -49 -10 -49 -5 0 -10 -13 -10 -30
l0 -30 1770 0 c1567 0 1770 -2 1770 -15 0 -8 5 -15 10 -15 6 0 10 -6 10 -13 0
-15 36 -92 53 -115 14 -18 128 -131 151 -150 8 -6 22 -12 31 -12 8 0 15 -3 15
-7 0 -11 50 -33 71 -33 10 0 21 -5 24 -10 3 -6 26 -10 51 -10 24 0 44 -4 44
-10 0 -6 62 -10 165 -10 103 0 165 4 165 10 0 6 13 10 29 10 17 0 33 4 36 10
3 5 17 10 31 10 13 0 24 5 24 10 0 6 11 10 25 10 14 0 25 4 25 8 0 5 11 14 24
20 61 28 225 195 226 230 0 6 5 12 10 12 6 0 10 9 10 20 0 11 5 20 10 20 6 0
10 7 10 15 0 13 203 15 1770 15 l1770 0 0 40 c0 22 -4 40 -10 40 -5 0 -10 18
-10 40 0 22 -4 40 -10 40 -5 0 -10 22 -10 48 0 26 -4 52 -9 57 -5 6 -11 28
-15 50 -13 99 -18 121 -26 140 -5 11 -11 36 -14 55 -5 34 -32 161 -63 290 -16
69 -31 149 -39 218 -4 23 -10 42 -15 42 -5 0 -9 18 -9 40 0 22 -4 40 -10 40
-5 0 -10 22 -10 49 0 27 -4 51 -9 53 -6 2 -11 27 -12 56 -2 28 -6 52 -11 52
-4 0 -8 20 -8 44 0 25 -4 48 -10 51 -5 3 -10 23 -10 44 0 20 -4 41 -9 46 -5 6
-11 28 -14 50 -6 41 -14 80 -42 200 -8 39 -25 115 -36 170 -12 55 -26 118 -31
140 -5 22 -12 58 -15 80 -3 22 -9 44 -14 50 -5 5 -9 26 -9 47 0 21 -4 38 -10
38 -5 0 -10 23 -10 50 0 28 -4 50 -10 50 -5 0 -10 25 -10 56 0 34 -4 53 -10
49 -6 -4 -10 15 -10 49 0 31 -4 56 -10 56 -5 0 -10 20 -10 44 0 25 -4 48 -10
51 -5 3 -10 21 -10 40 0 19 -4 36 -9 39 -5 3 -11 23 -15 43 -15 104 -25 156
-45 248 -35 153 -29 145 -111 145 -48 0 -72 -4 -75 -13 -3 -7 0 -35 5 -62 6
-28 14 -77 17 -110 3 -33 9 -64 14 -70 5 -5 9 -35 9 -67 0 -32 4 -58 10 -58 6
0 10 -27 10 -60 0 -33 4 -60 10 -60 6 0 10 -28 10 -65 0 -37 4 -65 10 -65 6 0
10 -24 10 -54 0 -30 4 -58 10 -61 6 -3 10 -35 10 -71 0 -35 4 -64 9 -64 5 0
12 -28 14 -62 3 -35 10 -88 16 -118 18 -97 29 -162 46 -275 9 -60 21 -130 26
-155 21 -99 43 -244 55 -355 3 -27 10 -54 15 -60 5 -5 9 -35 9 -67 0 -32 4
-58 10 -58 6 0 10 -27 10 -60 0 -33 4 -60 10 -60 6 0 10 -24 10 -53 0 -29 4
-57 9 -62 5 -6 12 -39 14 -75 3 -36 11 -92 17 -125 20 -112 31 -178 59 -365 5
-36 13 -79 16 -97 7 -29 5 -33 -21 -40 -36 -10 -545 -9 -674 2 -52 4 -99 11
-104 16 -6 5 -36 9 -68 9 -32 0 -58 4 -58 10 0 6 -22 10 -50 10 -27 0 -50 5
-50 10 0 6 -25 10 -55 10 -30 0 -55 5 -55 10 0 6 -16 10 -35 10 -19 0 -35 5
-35 10 0 6 -15 10 -34 10 -19 0 -38 5 -41 10 -3 6 -17 10 -31 10 -13 0 -32 4
-42 9 -9 5 -57 22 -107 39 -147 49 -250 88 -297 113 -10 5 -25 9 -33 9 -8 0
-15 5 -15 10 0 6 -9 10 -20 10 -11 0 -20 5 -20 10 0 6 -9 10 -20 10 -11 0 -20
5 -20 10 0 6 -9 10 -20 10 -11 0 -20 5 -20 10 0 6 -6 10 -13 10 -8 0 -27 6
-43 14 -96 48 -194 90 -224 97 -19 4 -53 13 -75 19 -22 7 -57 14 -78 17 -20 3
-40 9 -43 14 -7 12 -464 12 -464 0 0 -5 -19 -11 -42 -14 -55 -7 -98 -16 -123
-27 -11 -5 -42 -16 -70 -25 -61 -20 -245 -115 -245 -126 0 -5 -8 -9 -18 -9
-10 0 -24 -9 -32 -20 -8 -11 -20 -20 -27 -20 -7 0 -33 -19 -57 -42 -25 -24
-69 -63 -100 -88 -30 -25 -58 -53 -61 -63 -4 -10 -21 -32 -38 -50 -18 -18 -38
-44 -46 -60 -8 -15 -18 -27 -23 -27 -4 0 -8 -7 -8 -15 0 -8 -4 -15 -9 -15 -5
0 -13 -9 -16 -20 -9 -30 -27 -24 -55 17 -32 48 -306 323 -321 323 -6 0 -19 8
-28 18 -9 9 -28 23 -43 31 -16 8 -28 18 -28 23 0 4 -9 8 -20 8 -11 0 -20 5
-20 10 0 6 -6 10 -14 10 -8 0 -16 3 -18 8 -12 27 -291 142 -346 142 -12 0 -22
5 -22 10 0 6 -20 10 -44 10 -25 0 -48 5 -51 10 -8 14 -425 13 -425 -1 0 -5
-18 -9 -39 -9 -22 0 -43 -4 -46 -10 -3 -6 -17 -10 -31 -10 -13 0 -32 -4 -42
-9 -25 -13 -61 -27 -117 -47 -27 -10 -68 -28 -90 -41 -22 -13 -57 -31 -77 -40
-21 -10 -38 -21 -38 -25 0 -5 -11 -8 -25 -8 -14 0 -25 -4 -25 -10 0 -5 -9 -10
-19 -10 -11 0 -23 -4 -26 -10 -3 -6 -17 -10 -31 -10 -13 0 -24 -4 -24 -10 0
-5 -9 -10 -20 -10 -11 0 -20 -4 -20 -10 0 -5 -7 -10 -15 -10 -9 0 -30 -7 -48
-17 -18 -9 -45 -20 -62 -24 -16 -4 -82 -26 -145 -48 -63 -22 -125 -41 -137
-41 -13 0 -23 -4 -23 -10 0 -5 -16 -10 -35 -10 -19 0 -35 -4 -35 -10 0 -5 -22
-10 -50 -10 -27 0 -50 -4 -50 -10 0 -5 -18 -10 -40 -10 -22 0 -40 -4 -40 -9 0
-5 -26 -12 -57 -15 -32 -2 -87 -10 -123 -16 -154 -26 -229 -32 -469 -36 -170
-4 -277 -1 -324 6 l-69 12 7 32 c8 38 23 142 31 218 4 32 10 58 15 58 5 0 9
24 9 54 0 30 4 58 10 61 5 3 10 35 10 71 0 36 4 64 10 64 6 0 10 27 10 60 0
33 4 60 10 60 6 0 10 28 10 65 0 37 4 65 10 65 6 0 10 27 10 60 0 33 4 60 10
60 6 0 10 21 10 47 0 26 4 60 10 77 5 17 28 146 51 286 23 140 46 278 51 305
20 118 30 183 34 235 3 30 10 59 15 65 5 5 9 33 9 62 0 29 5 53 10 53 6 0 10
26 10 59 0 33 5 63 10 66 6 3 10 37 10 76 0 39 4 69 10 69 6 0 10 25 10 55 0
30 5 55 10 55 6 0 10 24 10 54 0 30 4 57 9 60 5 3 11 32 14 63 4 32 11 83 16
113 20 109 32 211 26 220 -4 6 -37 10 -75 10 -56 0 -71 -3 -79 -17z"/>
</g>
</svg>
